<?xml version="1.0" standalone="no"?>
<svg xmlns:xlink="http://www.w3.org/1999/xlink" id="wave" style="transform:rotate(0deg); transition: 0.3s" viewBox="0 0 1440 210" version="1.1" xmlns="http://www.w3.org/2000/svg"><defs><linearGradient id="sw-gradient-0" x1="0" x2="0" y1="1" y2="0"><stop stop-color="rgba(255, 255, 255, 1)" offset="0%"/><stop stop-color="rgba(255, 255, 255, 1)" offset="100%"/></linearGradient></defs><path style="transform:translate(0, 0px); opacity:1" fill="url(#sw-gradient-0)" d="M0,42L18.5,49C36.9,56,74,70,111,66.5C147.7,63,185,42,222,31.5C258.5,21,295,21,332,49C369.2,77,406,133,443,136.5C480,140,517,91,554,70C590.8,49,628,56,665,52.5C701.5,49,738,35,775,42C812.3,49,849,77,886,94.5C923.1,112,960,119,997,108.5C1033.8,98,1071,70,1108,56C1144.6,42,1182,42,1218,38.5C1255.4,35,1292,28,1329,45.5C1366.2,63,1403,105,1440,112C1476.9,119,1514,91,1551,98C1587.7,105,1625,147,1662,168C1698.5,189,1735,189,1772,161C1809.2,133,1846,77,1883,66.5C1920,56,1957,91,1994,105C2030.8,119,2068,112,2105,105C2141.5,98,2178,91,2215,84C2252.3,77,2289,70,2326,59.5C2363.1,49,2400,35,2437,38.5C2473.8,42,2511,63,2548,73.5C2584.6,84,2622,84,2640,84L2658.5,84L2658.5,210L2640,210C2621.5,210,2585,210,2548,210C2510.8,210,2474,210,2437,210C2400,210,2363,210,2326,210C2289.2,210,2252,210,2215,210C2178.5,210,2142,210,2105,210C2067.7,210,2031,210,1994,210C1956.9,210,1920,210,1883,210C1846.2,210,1809,210,1772,210C1735.4,210,1698,210,1662,210C1624.6,210,1588,210,1551,210C1513.8,210,1477,210,1440,210C1403.1,210,1366,210,1329,210C1292.3,210,1255,210,1218,210C1181.5,210,1145,210,1108,210C1070.8,210,1034,210,997,210C960,210,923,210,886,210C849.2,210,812,210,775,210C738.5,210,702,210,665,210C627.7,210,591,210,554,210C516.9,210,480,210,443,210C406.2,210,369,210,332,210C295.4,210,258,210,222,210C184.6,210,148,210,111,210C73.8,210,37,210,18,210L0,210Z"/><defs><linearGradient id="sw-gradient-1" x1="0" x2="0" y1="1" y2="0"><stop stop-color="rgba(255, 255, 255, 1)" offset="0%"/><stop stop-color="rgba(255, 255, 255, 1)" offset="100%"/></linearGradient></defs><path style="transform:translate(0, 50px); opacity:0.9" fill="url(#sw-gradient-1)" d="M0,0L18.5,28C36.9,56,74,112,111,126C147.7,140,185,112,222,112C258.5,112,295,140,332,133C369.2,126,406,84,443,59.5C480,35,517,28,554,24.5C590.8,21,628,21,665,49C701.5,77,738,133,775,147C812.3,161,849,133,886,119C923.1,105,960,105,997,119C1033.8,133,1071,161,1108,175C1144.6,189,1182,189,1218,178.5C1255.4,168,1292,147,1329,140C1366.2,133,1403,140,1440,133C1476.9,126,1514,105,1551,80.5C1587.7,56,1625,28,1662,28C1698.5,28,1735,56,1772,80.5C1809.2,105,1846,126,1883,126C1920,126,1957,105,1994,94.5C2030.8,84,2068,84,2105,70C2141.5,56,2178,28,2215,28C2252.3,28,2289,56,2326,56C2363.1,56,2400,28,2437,21C2473.8,14,2511,28,2548,49C2584.6,70,2622,98,2640,112L2658.5,126L2658.5,210L2640,210C2621.5,210,2585,210,2548,210C2510.8,210,2474,210,2437,210C2400,210,2363,210,2326,210C2289.2,210,2252,210,2215,210C2178.5,210,2142,210,2105,210C2067.7,210,2031,210,1994,210C1956.9,210,1920,210,1883,210C1846.2,210,1809,210,1772,210C1735.4,210,1698,210,1662,210C1624.6,210,1588,210,1551,210C1513.8,210,1477,210,1440,210C1403.1,210,1366,210,1329,210C1292.3,210,1255,210,1218,210C1181.5,210,1145,210,1108,210C1070.8,210,1034,210,997,210C960,210,923,210,886,210C849.2,210,812,210,775,210C738.5,210,702,210,665,210C627.7,210,591,210,554,210C516.9,210,480,210,443,210C406.2,210,369,210,332,210C295.4,210,258,210,222,210C184.6,210,148,210,111,210C73.8,210,37,210,18,210L0,210Z"/><defs><linearGradient id="sw-gradient-2" x1="0" x2="0" y1="1" y2="0"><stop stop-color="rgba(255, 255, 255, 1)" offset="0%"/><stop stop-color="rgba(255, 255, 255, 1)" offset="100%"/></linearGradient></defs><path style="transform:translate(0, 100px); opacity:0.8" fill="url(#sw-gradient-2)" d="M0,105L18.5,115.5C36.9,126,74,147,111,133C147.7,119,185,70,222,42C258.5,14,295,7,332,31.5C369.2,56,406,112,443,136.5C480,161,517,154,554,154C590.8,154,628,161,665,143.5C701.5,126,738,84,775,66.5C812.3,49,849,56,886,52.5C923.1,49,960,35,997,42C1033.8,49,1071,77,1108,73.5C1144.6,70,1182,35,1218,31.5C1255.4,28,1292,56,1329,84C1366.2,112,1403,140,1440,157.5C1476.9,175,1514,182,1551,182C1587.7,182,1625,175,1662,147C1698.5,119,1735,70,1772,49C1809.2,28,1846,35,1883,45.5C1920,56,1957,70,1994,73.5C2030.8,77,2068,70,2105,70C2141.5,70,2178,77,2215,94.5C2252.3,112,2289,140,2326,140C2363.1,140,2400,112,2437,115.5C2473.8,119,2511,154,2548,147C2584.6,140,2622,91,2640,66.5L2658.5,42L2658.5,210L2640,210C2621.5,210,2585,210,2548,210C2510.8,210,2474,210,2437,210C2400,210,2363,210,2326,210C2289.2,210,2252,210,2215,210C2178.5,210,2142,210,2105,210C2067.7,210,2031,210,1994,210C1956.9,210,1920,210,1883,210C1846.2,210,1809,210,1772,210C1735.4,210,1698,210,1662,210C1624.6,210,1588,210,1551,210C1513.8,210,1477,210,1440,210C1403.1,210,1366,210,1329,210C1292.3,210,1255,210,1218,210C1181.5,210,1145,210,1108,210C1070.8,210,1034,210,997,210C960,210,923,210,886,210C849.2,210,812,210,775,210C738.5,210,702,210,665,210C627.7,210,591,210,554,210C516.9,210,480,210,443,210C406.2,210,369,210,332,210C295.4,210,258,210,222,210C184.6,210,148,210,111,210C73.8,210,37,210,18,210L0,210Z"/></svg>